<svg width="32" height="33" viewBox="0 0 32 33" fill="none" xmlns="http://www.w3.org/2000/svg">
<rect width="32" height="32" transform="translate(0 0.599976)" fill="white"/>
<path d="M19.7056 12.8944C19.7056 11.9116 19.3152 10.9691 18.6202 10.2742C17.9253 9.57925 16.9828 9.18884 16 9.18884C15.0172 9.18884 14.0747 9.57925 13.3798 10.2742C12.6848 10.9691 12.2944 11.9116 12.2944 12.8944H8.58887V22.1583C8.58887 22.6497 8.78407 23.121 9.13153 23.4684C9.479 23.8159 9.95026 24.0111 10.4417 24.0111H17.2352V22.7759H10.4417C10.2779 22.7759 10.1208 22.7109 10.0049 22.595C9.88912 22.4792 9.82406 22.3221 9.82406 22.1583V14.1296H12.2944V15.3648H13.5296V14.1296H18.4704V15.3648H19.7056V14.1296H22.1759V17.8352H23.4111V12.8944H19.7056ZM13.5296 12.8944C13.5296 12.2392 13.7899 11.6109 14.2532 11.1476C14.7165 10.6843 15.3448 10.424 16 10.424C16.6552 10.424 17.2835 10.6843 17.7468 11.1476C18.2101 11.6109 18.4704 12.2392 18.4704 12.8944H13.5296Z" fill="#1D1D1D"/>
<path d="M21.5584 19.0703H20.3232V20.9231H18.4705V22.1583H20.3232V24.0111H21.5584V22.1583H23.4112V20.9231H21.5584V19.0703Z" fill="#1D1D1D"/>
</svg>
