<svg width="20" height="20" viewBox="0 0 20 20" fill="none" xmlns="http://www.w3.org/2000/svg">
<path d="M20.0001 18.8216L14.7817 13.6033C16.1372 11.9454 16.8037 9.83002 16.6433 7.69457C16.4828 5.55913 15.5077 3.56705 13.9197 2.13037C12.3317 0.693699 10.2522 -0.0776494 8.11143 -0.0241229C5.97064 0.0294036 3.93231 0.90371 2.41807 2.41795C0.903832 3.93219 0.0295257 5.97052 -0.0240008 8.11131C-0.0775273 10.2521 0.693821 12.3316 2.1305 13.9196C3.56717 15.5076 5.55925 16.4827 7.6947 16.6431C9.83014 16.8036 11.9456 16.1371 13.6034 14.7816L18.8217 19.9999L20.0001 18.8216ZM8.3334 14.9999C7.01485 14.9999 5.72592 14.6089 4.62959 13.8764C3.53327 13.1439 2.67878 12.1027 2.1742 10.8845C1.66961 9.66632 1.53759 8.32588 1.79483 7.03267C2.05206 5.73946 2.687 4.55158 3.61935 3.61923C4.5517 2.68688 5.73959 2.05194 7.03279 1.7947C8.326 1.53747 9.66644 1.66949 10.8846 2.17408C12.1028 2.67866 13.144 3.53314 13.8765 4.62947C14.6091 5.7258 15.0001 7.01473 15.0001 8.33327C14.9981 10.1008 14.2951 11.7953 13.0452 13.0451C11.7954 14.2949 10.1009 14.998 8.3334 14.9999Z" fill="#1D1D1D"/>
</svg>
