<svg width="20" height="20" viewBox="0 0 20 20" fill="none" xmlns="http://www.w3.org/2000/svg">
<path d="M15 4.99988C15 3.6738 14.4732 2.40203 13.5355 1.46434C12.5979 0.526662 11.3261 -0.00012207 10 -0.00012207C8.67392 -0.00012207 7.40215 0.526662 6.46447 1.46434C5.52678 2.40203 5 3.6738 5 4.99988H0V17.4999C0 18.1629 0.263392 18.7988 0.732233 19.2676C1.20107 19.7365 1.83696 19.9999 2.5 19.9999H17.5C18.163 19.9999 18.7989 19.7365 19.2678 19.2676C19.7366 18.7988 20 18.1629 20 17.4999V4.99988H15ZM10 1.66654C10.8841 1.66654 11.7319 2.01773 12.357 2.64286C12.9821 3.26798 13.3333 4.11582 13.3333 4.99988H6.66667C6.66667 4.11582 7.01786 3.26798 7.64298 2.64286C8.2681 2.01773 9.11594 1.66654 10 1.66654ZM18.3333 17.4999C18.3333 17.7209 18.2455 17.9329 18.0893 18.0891C17.933 18.2454 17.721 18.3332 17.5 18.3332H2.5C2.27899 18.3332 2.06702 18.2454 1.91074 18.0891C1.75446 17.9329 1.66667 17.7209 1.66667 17.4999V6.66654H5V8.33321H6.66667V6.66654H13.3333V8.33321H15V6.66654H18.3333V17.4999Z" fill="white"/>
</svg>
